<svg xmlns="http://www.w3.org/2000/svg" viewBox="0 0 64 64" fill="none" aria-hidden="true">
  <!--
    I Crown — diamond peaks + central i + two data/USB tracks per side.
    Tracks flare outward (not straight down) and terminate as hooks into the border.
  -->
  <g
    stroke="currentColor"
    stroke-width="2.15"
    stroke-linecap="round"
    stroke-linejoin="round"
    fill="none"
  >
    <!-- five diamond peaks -->
    <path d="M32 4 L37.2 18.5 L32 22.5 L26.8 18.5 Z"/>
    <path d="M20.5 10.5 L27.2 21.2 L22.5 25.2 L16.2 17.8 Z"/>
    <path d="M43.5 10.5 L47.8 17.8 L41.5 25.2 L36.8 21.2 Z"/>
    <path d="M11 20.5 L19.5 26.5 L16.5 30.5 L9.2 25.8 Z"/>
    <path d="M53 20.5 L54.8 25.8 L47.5 30.5 L44.5 26.5 Z"/>

    <!-- letter i stem -->
    <path d="M32 30.6 V46.5"/>

    <!-- LEFT: inner + outer tracks (flare out) -->
    <path d="M28.2 34 V39 L22.5 46.5 L20.5 52"/>
    <path d="M25.2 35.5 V38.5 L16.5 47 L12.5 53.5"/>

    <!-- RIGHT: inner + outer tracks -->
    <path d="M35.8 34 V39 L41.5 46.5 L43.5 52"/>
    <path d="M38.8 35.5 V38.5 L47.5 47 L51.5 53.5"/>
  </g>

  <!-- i tittle -->
  <circle cx="32" cy="25.8" r="2.4" fill="currentColor"/>

  <!-- center pad (i foot / data pin into border) -->
  <rect x="30" y="46" width="4" height="4" rx="0.4" fill="currentColor"/>

  <!-- USB / data hook terminals (arrow pads) -->
  <path d="M20.5 52 L18.4 57 L20.5 55.4 L22.6 57 Z" fill="currentColor"/>
  <path d="M12.5 53.5 L10 58.5 L12.5 56.8 L15 58.5 Z" fill="currentColor"/>
  <path d="M43.5 52 L41.4 57 L43.5 55.4 L45.6 57 Z" fill="currentColor"/>
  <path d="M51.5 53.5 L49 58.5 L51.5 56.8 L54 58.5 Z" fill="currentColor"/>
</svg>
